<svg width="186" height="80" viewBox="0 0 186 80" fill="none" xmlns="http://www.w3.org/2000/svg">
<path d="M97.2732 51.4472C98.748 51.9131 99.9033 52.6976 100.739 53.8009C101.575 54.8797 101.993 56.216 101.993 57.8097C101.993 60.0653 101.108 61.8061 99.3379 63.032C97.5927 64.2334 95.0364 64.8341 91.6689 64.8341H78.3219V39.09H90.9315C94.0778 39.09 96.4866 39.6907 98.1581 40.8921C99.8541 42.0935 100.702 43.724 100.702 45.7835C100.702 47.0339 100.395 48.1495 99.7804 49.1302C99.1904 50.111 98.3547 50.8833 97.2732 51.4472ZM84.258 43.5769V49.6451H90.1941C91.6689 49.6451 92.7873 49.3877 93.5493 48.8728C94.3113 48.3579 94.6923 47.5979 94.6923 46.5926C94.6923 45.5874 94.3113 44.8396 93.5493 44.3492C92.7873 43.8343 91.6689 43.5769 90.1941 43.5769H84.258ZM91.2265 60.3473C92.7996 60.3473 93.9794 60.0899 94.766 59.575C95.5771 59.0601 95.9827 58.2633 95.9827 57.1845C95.9827 55.0514 94.3973 53.9848 91.2265 53.9848H84.258V60.3473H91.2265Z" fill="#007994"/>
<path d="M106.515 39.09H112.488V59.9795H125.429V64.8341H106.515V39.09Z" fill="#007994"/>
<path d="M140.381 38.6487C142.765 38.6487 144.842 39.1146 146.612 40.0463C148.381 40.9779 149.758 42.351 150.741 44.1653C151.724 45.9797 152.216 48.174 152.216 50.7484V64.8341H146.243V58.6555H134.444V64.8341H128.545V50.7484C128.545 48.174 129.037 45.9797 130.02 44.1653C131.003 42.351 132.38 40.9779 134.15 40.0463C135.919 39.1146 137.996 38.6487 140.381 38.6487ZM146.243 53.8745V50.1968C146.243 48.0637 145.714 46.4578 144.658 45.379C143.601 44.2756 142.163 43.724 140.344 43.724C138.5 43.724 137.05 44.2756 135.993 45.379C134.961 46.4578 134.444 48.0637 134.444 50.1968V53.8745H146.243Z" fill="#007994"/>
<path d="M170.463 65.2755C167.833 65.2755 165.449 64.7115 163.31 63.5837C161.196 62.4313 159.525 60.8499 158.296 58.8394C157.091 56.8044 156.489 54.512 156.489 51.9621C156.489 49.4122 157.091 47.132 158.296 45.1215C159.525 43.0865 161.196 41.5051 163.31 40.3773C165.449 39.2249 167.845 38.6487 170.5 38.6487C172.737 38.6487 174.752 39.041 176.547 39.8256C178.366 40.6102 179.889 41.738 181.118 43.2091L177.284 46.7397C175.539 44.7292 173.376 43.724 170.795 43.724C169.197 43.724 167.771 44.0795 166.518 44.7905C165.264 45.477 164.281 46.4455 163.568 47.6959C162.88 48.9464 162.536 50.3684 162.536 51.9621C162.536 53.5558 162.88 54.9778 163.568 56.2282C164.281 57.4787 165.264 58.4594 166.518 59.1704C167.771 59.8569 169.197 60.2002 170.795 60.2002C173.376 60.2002 175.539 59.1827 177.284 57.1477L181.118 60.6783C179.889 62.1739 178.366 63.314 176.547 64.0986C174.728 64.8832 172.7 65.2755 170.463 65.2755Z" fill="#007994"/>
<path d="M77.9604 75.4502V70.1422H80.3475C80.9607 70.1422 81.432 70.266 81.7614 70.5137C82.0909 70.7564 82.2556 71.09 82.2556 71.5147C82.2556 71.8028 82.1897 72.0455 82.0579 72.2427C81.9312 72.4398 81.7589 72.5915 81.541 72.6976C81.3231 72.8038 81.0874 72.8569 80.834 72.8569L80.9708 72.6294C81.2749 72.6294 81.5435 72.6825 81.7766 72.7886C82.0098 72.8948 82.1948 73.0515 82.3316 73.2588C82.4684 73.461 82.5369 73.7138 82.5369 74.0171C82.5369 74.472 82.3645 74.8259 82.0199 75.0787C81.6804 75.3264 81.1736 75.4502 80.4995 75.4502H77.9604ZM78.7206 74.836H80.4691C80.8897 74.836 81.2116 74.7652 81.4346 74.6237C81.6575 74.4821 81.769 74.2597 81.769 73.9564C81.769 73.648 81.6575 73.4231 81.4346 73.2815C81.2116 73.14 80.8897 73.0692 80.4691 73.0692H78.6522V72.455H80.279C80.6642 72.455 80.9632 72.3842 81.1761 72.2427C81.3889 72.1011 81.4954 71.8888 81.4954 71.6057C81.4954 71.3226 81.3889 71.1103 81.1761 70.9687C80.9632 70.8272 80.6642 70.7564 80.279 70.7564H78.7206V74.836Z" fill="#5A7683"/>
<path d="M83.7139 75.4502V70.1422H84.4742V74.7905H87.3554V75.4502H83.7139Z" fill="#5A7683"/>
<path d="M90.63 75.5109C90.2245 75.5109 89.8469 75.4426 89.4972 75.3062C89.1526 75.1697 88.8536 74.9801 88.6002 74.7374C88.3468 74.4897 88.1491 74.2016 88.0072 73.873C87.8653 73.5444 87.7944 73.1855 87.7944 72.7962C87.7944 72.407 87.8653 72.048 88.0072 71.7194C88.1491 71.3908 88.3468 71.1052 88.6002 70.8626C88.8536 70.6149 89.1526 70.4227 89.4972 70.2863C89.8419 70.1498 90.2195 70.0815 90.63 70.0815C91.0354 70.0815 91.4079 70.1498 91.7475 70.2863C92.0921 70.4177 92.3911 70.6073 92.6445 70.855C92.903 71.0976 93.1006 71.3833 93.2375 71.7119C93.3794 72.0404 93.4503 72.4019 93.4503 72.7962C93.4503 73.1905 93.3794 73.552 93.2375 73.8806C93.1006 74.2092 92.903 74.4973 92.6445 74.745C92.3911 74.9877 92.0921 75.1773 91.7475 75.3138C91.4079 75.4452 91.0354 75.5109 90.63 75.5109ZM90.63 74.836C90.9239 74.836 91.1951 74.7855 91.4434 74.6844C91.6968 74.5833 91.9147 74.4417 92.0972 74.2597C92.2847 74.0727 92.4291 73.8553 92.5305 73.6076C92.6369 73.3599 92.6901 73.0894 92.6901 72.7962C92.6901 72.503 92.6369 72.2326 92.5305 71.9848C92.4291 71.7371 92.2847 71.5223 92.0972 71.3403C91.9147 71.1533 91.6968 71.0092 91.4434 70.9081C91.1951 70.807 90.9239 70.7564 90.63 70.7564C90.3309 70.7564 90.0547 70.807 89.8013 70.9081C89.553 71.0092 89.3351 71.1533 89.1476 71.3403C88.96 71.5223 88.8131 71.7371 88.7066 71.9848C88.6053 72.2326 88.5546 72.503 88.5546 72.7962C88.5546 73.0894 88.6053 73.3599 88.7066 73.6076C88.8131 73.8553 88.96 74.0727 89.1476 74.2597C89.3351 74.4417 89.553 74.5833 89.8013 74.6844C90.0547 74.7855 90.3309 74.836 90.63 74.836Z" fill="#5A7683"/>
<path d="M96.9918 75.5109C96.5863 75.5109 96.2113 75.4452 95.8666 75.3138C95.5271 75.1773 95.2306 74.9877 94.9772 74.745C94.7289 74.4973 94.5337 74.2092 94.3918 73.8806C94.2499 73.552 94.179 73.1905 94.179 72.7962C94.179 72.4019 94.2499 72.0404 94.3918 71.7119C94.5337 71.3833 94.7314 71.0976 94.9848 70.855C95.2382 70.6073 95.5347 70.4177 95.8742 70.2863C96.2189 70.1498 96.5939 70.0815 96.9994 70.0815C97.4099 70.0815 97.7874 70.1523 98.1321 70.2938C98.4818 70.4303 98.7783 70.6351 99.0215 70.9081L98.5274 71.3858C98.3247 71.1735 98.0966 71.0167 97.8432 70.9156C97.5898 70.8095 97.3186 70.7564 97.0298 70.7564C96.7307 70.7564 96.452 70.807 96.1935 70.9081C95.9401 71.0092 95.7197 71.1507 95.5321 71.3327C95.3446 71.5147 95.1976 71.7321 95.0912 71.9848C94.9899 72.2326 94.9392 72.503 94.9392 72.7962C94.9392 73.0894 94.9899 73.3624 95.0912 73.6152C95.1976 73.8629 95.3446 74.0777 95.5321 74.2597C95.7197 74.4417 95.9401 74.5833 96.1935 74.6844C96.452 74.7855 96.7307 74.836 97.0298 74.836C97.3186 74.836 97.5898 74.7855 97.8432 74.6844C98.0966 74.5782 98.3247 74.4164 98.5274 74.1991L99.0215 74.6768C98.7783 74.9498 98.4818 75.157 98.1321 75.2986C97.7874 75.4401 97.4073 75.5109 96.9918 75.5109Z" fill="#5A7683"/>
<path d="M100.775 74.1687L100.737 73.2436L103.755 70.1422H104.622L102.288 72.5991L101.862 73.0692L100.775 74.1687ZM100.106 75.4502V70.1422H100.866V75.4502H100.106ZM103.877 75.4502L101.695 72.9175L102.204 72.3564L104.766 75.4502H103.877Z" fill="#5A7683"/>
<path d="M107.756 75.5109C107.351 75.5109 106.976 75.4452 106.631 75.3138C106.292 75.1773 105.995 74.9877 105.742 74.745C105.494 74.4973 105.298 74.2092 105.157 73.8806C105.015 73.552 104.944 73.1905 104.944 72.7962C104.944 72.4019 105.015 72.0404 105.157 71.7119C105.298 71.3833 105.496 71.0976 105.75 70.855C106.003 70.6073 106.299 70.4177 106.639 70.2863C106.984 70.1498 107.359 70.0815 107.764 70.0815C108.175 70.0815 108.552 70.1523 108.897 70.2938C109.246 70.4303 109.543 70.6351 109.786 70.9081L109.292 71.3858C109.089 71.1735 108.861 71.0167 108.608 70.9156C108.354 70.8095 108.083 70.7564 107.794 70.7564C107.495 70.7564 107.217 70.807 106.958 70.9081C106.705 71.0092 106.484 71.1507 106.297 71.3327C106.109 71.5147 105.962 71.7321 105.856 71.9848C105.755 72.2326 105.704 72.503 105.704 72.7962C105.704 73.0894 105.755 73.3624 105.856 73.6152C105.962 73.8629 106.109 74.0777 106.297 74.2597C106.484 74.4417 106.705 74.5833 106.958 74.6844C107.217 74.7855 107.495 74.836 107.794 74.836C108.083 74.836 108.354 74.7855 108.608 74.6844C108.861 74.5782 109.089 74.4164 109.292 74.1991L109.786 74.6768C109.543 74.9498 109.246 75.157 108.897 75.2986C108.552 75.4401 108.172 75.5109 107.756 75.5109Z" fill="#5A7683"/>
<path d="M114.687 70.1422H115.447V75.4502H114.687V70.1422ZM111.631 75.4502H110.871V70.1422H111.631V75.4502ZM114.755 73.0844H111.555V72.4247H114.755V73.0844Z" fill="#5A7683"/>
<path d="M116.234 75.4502L118.644 70.1422H119.397L121.814 75.4502H121.016L118.865 70.5668H119.169L117.017 75.4502H116.234ZM117.26 74.1232L117.466 73.5166H120.461L120.681 74.1232H117.26Z" fill="#5A7683"/>
<path d="M122.608 75.4502V70.1422H123.368V75.4502H122.608Z" fill="#5A7683"/>
<path d="M124.961 75.4502V70.1422H125.585L129.105 74.5024H128.778V70.1422H129.538V75.4502H128.914L125.395 71.09H125.722V75.4502H124.961Z" fill="#5A7683"/>
<path d="M132.366 75.4502L134.776 70.1422H135.529L137.946 75.4502H137.148L134.997 70.5668H135.301L133.149 75.4502H132.366ZM133.393 74.1232L133.598 73.5166H136.593L136.814 74.1232H133.393Z" fill="#5A7683"/>
<path d="M141.045 75.5109C140.64 75.5109 140.265 75.4452 139.92 75.3138C139.581 75.1773 139.284 74.9877 139.031 74.745C138.783 74.4973 138.587 74.2092 138.445 73.8806C138.304 73.552 138.233 73.1905 138.233 72.7962C138.233 72.4019 138.304 72.0404 138.445 71.7119C138.587 71.3833 138.785 71.0976 139.038 70.855C139.292 70.6073 139.588 70.4177 139.928 70.2863C140.273 70.1498 140.648 70.0815 141.053 70.0815C141.464 70.0815 141.841 70.1523 142.186 70.2938C142.535 70.4303 142.832 70.6351 143.075 70.9081L142.581 71.3858C142.378 71.1735 142.15 71.0167 141.897 70.9156C141.643 70.8095 141.372 70.7564 141.083 70.7564C140.784 70.7564 140.506 70.807 140.247 70.9081C139.994 71.0092 139.773 71.1507 139.586 71.3327C139.398 71.5147 139.251 71.7321 139.145 71.9848C139.044 72.2326 138.993 72.503 138.993 72.7962C138.993 73.0894 139.044 73.3624 139.145 73.6152C139.251 73.8629 139.398 74.0777 139.586 74.2597C139.773 74.4417 139.994 74.5833 140.247 74.6844C140.506 74.7855 140.784 74.836 141.083 74.836C141.372 74.836 141.643 74.7855 141.897 74.6844C142.15 74.5782 142.378 74.4164 142.581 74.1991L143.075 74.6768C142.832 74.9498 142.535 75.157 142.186 75.2986C141.841 75.4401 141.461 75.5109 141.045 75.5109Z" fill="#5A7683"/>
<path d="M146.539 75.5109C146.134 75.5109 145.759 75.4452 145.414 75.3138C145.074 75.1773 144.778 74.9877 144.525 74.745C144.276 74.4973 144.081 74.2092 143.939 73.8806C143.797 73.552 143.726 73.1905 143.726 72.7962C143.726 72.4019 143.797 72.0404 143.939 71.7119C144.081 71.3833 144.279 71.0976 144.532 70.855C144.786 70.6073 145.082 70.4177 145.422 70.2863C145.766 70.1498 146.141 70.0815 146.547 70.0815C146.957 70.0815 147.335 70.1523 147.679 70.2938C148.029 70.4303 148.326 70.6351 148.569 70.9081L148.075 71.3858C147.872 71.1735 147.644 71.0167 147.391 70.9156C147.137 70.8095 146.866 70.7564 146.577 70.7564C146.278 70.7564 145.999 70.807 145.741 70.9081C145.488 71.0092 145.267 71.1507 145.08 71.3327C144.892 71.5147 144.745 71.7321 144.639 71.9848C144.537 72.2326 144.487 72.503 144.487 72.7962C144.487 73.0894 144.537 73.3624 144.639 73.6152C144.745 73.8629 144.892 74.0777 145.08 74.2597C145.267 74.4417 145.488 74.5833 145.741 74.6844C145.999 74.7855 146.278 74.836 146.577 74.836C146.866 74.836 147.137 74.7855 147.391 74.6844C147.644 74.5782 147.872 74.4164 148.075 74.1991L148.569 74.6768C148.326 74.9498 148.029 75.157 147.679 75.2986C147.335 75.4401 146.955 75.5109 146.539 75.5109Z" fill="#5A7683"/>
<path d="M151.944 75.5109C151.539 75.5109 151.161 75.4426 150.812 75.3062C150.467 75.1697 150.168 74.9801 149.915 74.7374C149.661 74.4897 149.463 74.2016 149.322 73.873C149.18 73.5444 149.109 73.1855 149.109 72.7962C149.109 72.407 149.18 72.048 149.322 71.7194C149.463 71.3908 149.661 71.1052 149.915 70.8626C150.168 70.6149 150.467 70.4227 150.812 70.2863C151.156 70.1498 151.534 70.0815 151.944 70.0815C152.35 70.0815 152.722 70.1498 153.062 70.2863C153.406 70.4177 153.705 70.6073 153.959 70.855C154.217 71.0976 154.415 71.3833 154.552 71.7119C154.694 72.0404 154.765 72.4019 154.765 72.7962C154.765 73.1905 154.694 73.552 154.552 73.8806C154.415 74.2092 154.217 74.4973 153.959 74.745C153.705 74.9877 153.406 75.1773 153.062 75.3138C152.722 75.4452 152.35 75.5109 151.944 75.5109ZM151.944 74.836C152.238 74.836 152.509 74.7855 152.758 74.6844C153.011 74.5833 153.229 74.4417 153.412 74.2597C153.599 74.0727 153.743 73.8553 153.845 73.6076C153.951 73.3599 154.004 73.0894 154.004 72.7962C154.004 72.503 153.951 72.2326 153.845 71.9848C153.743 71.7371 153.599 71.5223 153.412 71.3403C153.229 71.1533 153.011 71.0092 152.758 70.9081C152.509 70.807 152.238 70.7564 151.944 70.7564C151.645 70.7564 151.369 70.807 151.116 70.9081C150.867 71.0092 150.649 71.1533 150.462 71.3403C150.274 71.5223 150.127 71.7371 150.021 71.9848C149.92 72.2326 149.869 72.503 149.869 72.7962C149.869 73.0894 149.92 73.3599 150.021 73.6076C150.127 73.8553 150.274 74.0727 150.462 74.2597C150.649 74.4417 150.867 74.5833 151.116 74.6844C151.369 74.7855 151.645 74.836 151.944 74.836Z" fill="#5A7683"/>
<path d="M158.131 75.5109C157.432 75.5109 156.882 75.3112 156.482 74.9119C156.081 74.5125 155.881 73.9286 155.881 73.1602V70.1422H156.641V73.1299C156.641 73.7213 156.77 74.1536 157.029 74.4265C157.292 74.6995 157.662 74.836 158.139 74.836C158.62 74.836 158.99 74.6995 159.249 74.4265C159.512 74.1536 159.644 73.7213 159.644 73.1299V70.1422H160.381V73.1602C160.381 73.9286 160.181 74.5125 159.781 74.9119C159.386 75.3112 158.836 75.5109 158.131 75.5109Z" fill="#5A7683"/>
<path d="M161.94 75.4502V70.1422H162.563L166.083 74.5024H165.756V70.1422H166.517V75.4502H165.893L162.373 71.09H162.7V75.4502H161.94Z" fill="#5A7683"/>
<path d="M169.166 75.4502V70.8019H167.341V70.1422H171.743V70.8019H169.919V75.4502H169.166Z" fill="#5A7683"/>
<path d="M172.571 75.4502V70.1422H173.331V75.4502H172.571Z" fill="#5A7683"/>
<path d="M174.924 75.4502V70.1422H175.548L179.068 74.5024H178.741V70.1422H179.501V75.4502H178.878L175.358 71.09H175.685V75.4502H174.924Z" fill="#5A7683"/>
<path d="M183.496 75.5109C183.086 75.5109 182.708 75.4452 182.363 75.3138C182.019 75.1773 181.72 74.9877 181.466 74.745C181.213 74.4973 181.015 74.2092 180.873 73.8806C180.731 73.552 180.66 73.1905 180.66 72.7962C180.66 72.4019 180.731 72.0404 180.873 71.7119C181.015 71.3833 181.213 71.0976 181.466 70.855C181.725 70.6073 182.026 70.4177 182.371 70.2863C182.716 70.1498 183.096 70.0815 183.511 70.0815C183.932 70.0815 184.317 70.1498 184.667 70.2863C185.016 70.4227 185.313 70.6275 185.556 70.9005L185.085 71.3706C184.867 71.1583 184.629 71.0041 184.37 70.9081C184.117 70.807 183.841 70.7564 183.542 70.7564C183.238 70.7564 182.954 70.807 182.69 70.9081C182.432 71.0092 182.206 71.1507 182.014 71.3327C181.826 71.5147 181.679 71.7321 181.573 71.9848C181.471 72.2326 181.421 72.503 181.421 72.7962C181.421 73.0844 181.471 73.3548 181.573 73.6076C181.679 73.8553 181.826 74.0727 182.014 74.2597C182.206 74.4417 182.432 74.5833 182.69 74.6844C182.949 74.7855 183.23 74.836 183.534 74.836C183.818 74.836 184.089 74.793 184.348 74.7071C184.611 74.6161 184.854 74.467 185.077 74.2597L185.511 74.836C185.247 75.0585 184.938 75.2278 184.583 75.3441C184.233 75.4553 183.871 75.5109 183.496 75.5109ZM184.781 74.7374V72.7659H185.511V74.836L184.781 74.7374Z" fill="#5A7683"/>
<path d="M176.646 2.27488H156.328C155.98 2.27887 155.645 2.4073 155.384 2.63677C156.419 2.99996 157.33 3.64825 158.011 4.50651C158.691 5.36477 159.114 6.39786 159.23 7.48604C159.253 7.67841 159.253 7.87269 159.23 8.06506V32.6733C159.23 32.9502 159.309 33.2214 159.458 33.4549C159.607 33.6884 159.82 33.8743 160.072 33.9906C160.325 34.1065 160.605 34.1477 160.881 34.1092C161.156 34.0707 161.414 33.9542 161.625 33.7735L165.761 30.2414L169.898 33.7735C170.16 33.9977 170.495 34.121 170.841 34.121C171.187 34.121 171.521 33.9977 171.784 33.7735L175.921 30.2414L180.057 33.7735C180.32 33.9977 180.654 34.1209 181 34.1209C181.21 34.1194 181.418 34.075 181.61 33.9906C181.862 33.8743 182.075 33.6884 182.224 33.4549C182.373 33.2214 182.452 32.9502 182.451 32.6733V8.06506C182.451 6.52941 181.84 5.05665 180.751 3.97078C179.662 2.88492 178.186 2.27488 176.646 2.27488ZM175.195 22.5405H166.487C166.102 22.5405 165.733 22.388 165.461 22.1165C165.189 21.8451 165.036 21.4769 165.036 21.093C165.036 20.709 165.189 20.3409 165.461 20.0694C165.733 19.7979 166.102 19.6454 166.487 19.6454H175.195C175.58 19.6454 175.949 19.7979 176.221 20.0694C176.493 20.3409 176.646 20.709 176.646 21.093C176.646 21.4769 176.493 21.8451 176.221 22.1165C175.949 22.388 175.58 22.5405 175.195 22.5405ZM175.195 16.7503H166.487C166.102 16.7503 165.733 16.5978 165.461 16.3263C165.189 16.0549 165.036 15.6867 165.036 15.3028C165.036 14.9189 165.189 14.5507 165.461 14.2792C165.733 14.0077 166.102 13.8552 166.487 13.8552H175.195C175.58 13.8552 175.949 14.0077 176.221 14.2792C176.493 14.5507 176.646 14.9189 176.646 15.3028C176.646 15.6867 176.493 16.0549 176.221 16.3263C175.949 16.5978 175.58 16.7503 175.195 16.7503ZM175.195 10.9601H166.487C166.102 10.9601 165.733 10.8076 165.461 10.5362C165.189 10.2647 165.036 9.89652 165.036 9.5126C165.036 9.12869 165.189 8.7605 165.461 8.48904C165.733 8.21757 166.102 8.06506 166.487 8.06506H175.195C175.58 8.06506 175.949 8.21757 176.221 8.48904C176.493 8.7605 176.646 9.12869 176.646 9.5126C176.646 9.89652 176.493 10.2647 176.221 10.5362C175.949 10.8076 175.58 10.9601 175.195 10.9601Z" fill="#007994"/>
<path d="M24.2023 0.0708445C24.2023 0.108325 24.7941 0.726759 25.5269 1.44826C28.6363 4.53106 29.9702 6.60188 30.6653 9.43168C30.8532 10.2 31.0411 10.7622 31.0975 10.7435C31.229 10.6967 31.4826 9.9283 31.6799 8.99128C31.802 8.36348 31.8302 7.92308 31.7832 6.92984C31.7175 5.51493 31.5765 4.85902 31.1444 3.99696C30.609 2.93813 28.7772 1.32645 27.4432 0.736129C26.4944 0.31447 24.2023 -0.15404 24.2023 0.0708445Z" fill="#007994"/>
<path d="M46.1653 0.276993C45.611 0.426916 44.9723 0.633061 44.7374 0.736133C43.9389 1.08283 42.9432 1.80434 42.1353 2.61017C40.8483 3.89389 40.482 4.79343 40.388 6.92984C40.3411 7.92308 40.3692 8.36348 40.4914 8.99128C40.7826 10.4156 41.1208 11.1277 41.2429 10.5655C41.7314 8.326 42.0226 7.52016 42.8117 6.124C43.5726 4.79343 44.512 3.63153 46.2968 1.81371C47.2174 0.886057 47.9689 0.0895888 47.9689 0.0614782C47.9689 -0.0790749 47.1235 0.0333676 46.1653 0.276993Z" fill="#007994"/>
<path d="M35.9917 2.98516C35.9635 3.05075 35.832 3.65981 35.7005 4.34384C35.1462 7.39853 33.7747 10.1627 31.4732 12.8239C29.6132 14.9884 27.6687 16.3471 24.4372 17.762C22.2108 18.7365 20.2475 19.4299 14.7145 21.2196C12.6197 21.8942 9.76392 23.356 7.71605 24.8084C5.72454 26.2233 3.27273 29.0999 2.14546 31.3488C1.27183 33.0823 0.529713 35.3498 0.153957 37.3926C-0.0621029 38.5919 -0.052709 39.0698 0.200926 39.0698C0.276078 39.0698 0.407592 38.9293 0.492137 38.7606C1.27183 37.2239 4.0994 34.0474 5.97818 32.6137C8.81514 30.4305 11.4642 29.0062 16.6872 26.8323C18.2654 26.1858 19.7966 25.5205 20.1066 25.3706C20.4072 25.2207 20.6702 25.1082 20.6796 25.127C20.6984 25.1457 20.6796 25.3237 20.6327 25.5299C20.5575 25.8766 20.6421 26.2326 20.8112 26.2326C20.8769 26.2326 22.0136 25.8578 22.3518 25.7173C22.6148 25.6048 22.5396 25.4643 21.8539 24.7803C21.4969 24.4242 21.1963 24.1056 21.1963 24.0775C21.1963 24.0494 21.8069 24.04 22.5584 24.0588C24.1554 24.0962 24.099 24.1525 23.6387 22.9999C23.4884 22.6064 23.3569 22.2503 23.3569 22.2034C23.3569 22.1472 23.8078 22.1097 24.4654 22.1097C25.0666 22.1097 25.6208 22.0723 25.696 22.0254C25.8181 21.9505 25.8087 21.8005 25.6772 20.9291C25.5926 20.3669 25.5457 19.8984 25.5645 19.8796C25.5833 19.8609 25.9402 19.9733 26.3629 20.142C27.4526 20.5543 27.5654 20.5262 27.8848 19.7485C28.2605 18.8021 29.2281 17.4246 29.5193 17.4246C29.5757 17.4246 29.9514 17.6776 30.3554 17.9869C30.7593 18.2961 31.1632 18.5491 31.2666 18.5491C31.3981 18.5491 31.5672 18.2867 31.9617 17.4902C32.2435 16.9187 32.5066 16.4314 32.5441 16.422C32.5817 16.4033 32.779 16.6563 32.9856 16.9842C33.1923 17.3028 33.662 17.8744 34.019 18.2586C34.6578 18.9239 35.8602 19.8609 36.0856 19.8609C36.3111 19.8609 37.5135 18.9239 38.1523 18.2586C38.5187 17.8744 38.979 17.3028 39.1856 16.9842C39.3923 16.6563 39.5896 16.4033 39.6271 16.422C39.6647 16.4314 39.9277 16.9187 40.2096 17.4902C40.5947 18.268 40.7732 18.5491 40.9047 18.5491C40.9986 18.5491 41.4026 18.2961 41.8065 17.9869C42.2105 17.6776 42.5956 17.4246 42.652 17.4246C42.9432 17.4246 43.9108 18.8021 44.2865 19.7485C44.6059 20.5262 44.7186 20.5543 45.8083 20.142C46.2311 19.9733 46.588 19.8609 46.6162 19.8796C46.635 19.9077 46.588 20.2826 46.5129 20.7136C46.3344 21.7256 46.3344 21.9786 46.5223 22.0535C46.6068 22.0816 47.1517 22.1097 47.7435 22.1097C48.3729 22.1097 48.8144 22.1472 48.8144 22.2034C48.8144 22.2503 48.6923 22.6064 48.5326 22.9999C48.0723 24.1525 48.0159 24.0962 49.6129 24.0588C50.3644 24.04 50.975 24.0494 50.975 24.0775C50.975 24.1056 50.6838 24.4242 50.3174 24.7803C49.6316 25.4643 49.5565 25.6048 49.8289 25.7173C50.1577 25.8578 51.2944 26.2326 51.3601 26.2326C51.5292 26.2326 51.6138 25.8766 51.5386 25.5299C51.4916 25.3237 51.4729 25.1457 51.4916 25.127C51.501 25.1082 51.7641 25.2207 52.0647 25.3706C52.3747 25.5205 53.9059 26.1858 55.4841 26.8323C60.6413 28.9781 63.281 30.393 66.0522 32.5013C68.0155 34.0005 70.8713 37.177 71.6791 38.7606C71.7637 38.9293 71.8952 39.0698 71.9703 39.0698C72.2146 39.0698 72.2334 38.5919 72.0267 37.4394C71.651 35.3967 70.8901 33.0729 70.0258 31.3394C68.8985 29.1093 66.4467 26.2233 64.4552 24.8084C62.4167 23.3654 59.5422 21.8849 57.4474 21.2102C51.905 19.4205 49.9604 18.7365 47.7341 17.762C44.5026 16.3471 42.558 14.9884 40.698 12.8239C38.3965 10.1534 37.025 7.39853 36.4614 4.3251C36.2359 3.08823 36.1326 2.76964 35.9917 2.98516Z" fill="#007994"/>
<path d="M20.3039 4.45593C19.5336 4.64333 18.3969 5.21491 17.4199 5.91768C16.2269 6.77974 16.2081 6.98588 17.3448 6.77974C17.7299 6.71415 18.3218 6.65793 18.6599 6.64855C19.8154 6.64855 21.713 7.01399 23.0469 7.50124C23.8172 7.78235 26.2502 8.96299 27.2554 9.53458C27.7157 9.80631 28.129 10.0218 28.1666 10.0218C28.6081 10.0218 26.8514 7.2951 25.7429 6.27375C23.9299 4.58711 22.1733 4.00616 20.3039 4.45593Z" fill="#007994"/>
<path d="M49.472 4.43719C48.4762 4.71829 47.4617 5.31799 46.4753 6.23627C45.3105 7.31384 43.535 10.0218 44.0047 10.0218C44.0423 10.0218 44.4086 9.82505 44.822 9.5908C47.8656 7.84794 50.1953 6.97651 52.5062 6.72352C53.4644 6.62044 54.7138 6.68604 55.4653 6.89218C55.625 6.93903 55.6719 6.91092 55.6719 6.77037C55.6719 6.52674 54.2159 5.46791 53.1826 4.96192C51.9238 4.34348 50.5241 4.14671 49.472 4.43719Z" fill="#007994"/>
<path d="M17.5797 7.72642C16.3491 7.99816 14.9963 8.68218 13.8691 9.60046C13.1551 10.1814 11.2482 12.121 10.6657 12.8519C10.0364 13.6484 10.2712 13.6765 11.9057 13.0112C13.1833 12.4959 15.1654 11.8774 16.1236 11.6994C16.4618 11.6338 17.3072 11.5869 18.0024 11.5869C19.1296 11.5776 19.4021 11.6151 20.4072 11.8774C22.4739 12.4115 25.0666 12.4677 26.6448 12.018C27.3587 11.8118 28.8054 11.259 29.0684 11.0903C29.3972 10.8748 29.1811 10.678 28.6269 10.678C28.1384 10.678 27.0487 10.4813 26.269 10.2564C25.0948 9.90968 24.5405 9.67543 22.7745 8.804C21.5721 8.2043 20.6984 7.82949 20.2663 7.73579C19.4866 7.55776 18.3594 7.55776 17.5797 7.72642Z" fill="#007994"/>
<path d="M51.8674 7.72631C51.5574 7.80127 50.4583 8.27915 49.425 8.79451C47.6307 9.67531 47.0671 9.90957 45.9023 10.2563C45.1226 10.4811 44.0329 10.6779 43.5444 10.6779C42.9902 10.6779 42.7741 10.8747 43.1029 11.0902C43.3659 11.2589 44.8126 11.8117 45.5265 12.0179C47.1047 12.4676 49.6974 12.4114 51.7641 11.8773C52.741 11.6243 53.0698 11.5868 54.075 11.5775C54.7231 11.5775 55.5686 11.6337 55.9538 11.6899C56.9307 11.8492 58.8753 12.4489 60.2655 13.0111C62.3698 13.8732 62.3416 13.6576 60.0589 11.2776C58.2271 9.37546 56.9777 8.4853 55.3525 7.94182C54.3098 7.59513 52.7974 7.50142 51.8674 7.72631Z" fill="#007994"/>
<path d="M29.6414 11.7553C28.7772 12.4206 28.129 12.7486 27.1145 13.0578C25.1981 13.6294 23.0845 13.7606 18.3593 13.5919C14.0757 13.4326 12.4412 13.6013 10.3463 14.4165C9.29422 14.8194 8.50513 15.3535 7.56574 16.2999C6.25999 17.6117 5.32999 19.1859 4.67242 21.1255C4.30606 22.2125 3.99606 23.6368 4.09 23.7305C4.19333 23.8335 4.53151 23.6555 5.53666 23.009C7.12423 21.9782 9.90482 20.6477 11.8494 19.9824C14.0006 19.2515 16.7624 18.5206 18.8478 18.1364C21.3184 17.6773 23.169 17.1057 24.813 16.3093C26.2314 15.6159 27.7814 14.5945 28.6269 13.798C29.3502 13.114 30.515 11.6804 30.5338 11.4555C30.5526 11.165 30.3178 11.24 29.6414 11.7553Z" fill="#007994"/>
<path d="M41.628 11.3339C41.5623 11.437 41.7502 11.7368 42.4829 12.6457C43.1874 13.5359 44.0799 14.3324 45.2165 15.082C47.518 16.6093 49.8853 17.4995 53.3235 18.1367C55.4934 18.5396 58.0956 19.233 60.3219 19.9826C62.3416 20.676 64.8592 21.8848 66.8601 23.1404C67.4425 23.4964 67.9498 23.7963 67.9873 23.7963C68.1564 23.7963 68.1564 23.5808 67.9685 22.7937C67.3016 19.9826 66.2589 17.968 64.6055 16.3001C63.6661 15.3537 62.8771 14.8196 61.8249 14.4167C59.7301 13.6015 58.0956 13.4328 53.8119 13.5921C47.1329 13.8358 44.7562 13.4516 42.5392 11.7649C41.8253 11.2215 41.722 11.1746 41.628 11.3339Z" fill="#007994"/>
<path d="M26.316 26.3452C26.1093 26.4951 25.339 26.9824 24.6063 27.4321C23.8642 27.8725 23.2629 28.2848 23.2629 28.3504C23.2629 28.5003 23.7984 28.9501 23.9769 28.9501C24.0426 28.9501 24.2681 28.8845 24.4748 28.8002C25.0196 28.5847 25.2545 28.6503 25.3578 29.0438C25.4705 29.4842 25.649 29.6716 26.316 30.0089C27.1051 30.4025 27.3211 30.4587 28.3357 30.5337L29.2281 30.5899L29.2563 30.871C29.275 31.0209 29.2469 31.377 29.1811 31.6581C29.0308 32.314 29.1247 32.3983 29.6978 32.1453C29.942 32.0329 30.1675 31.9486 30.1957 31.9486C30.3084 31.9486 30.1111 34.1131 29.9326 34.8533C29.8199 35.2844 29.4817 36.4556 29.1623 37.4582C28.7302 38.8169 28.6175 39.2948 28.702 39.3791C28.8523 39.5291 28.9087 39.4354 29.4441 38.1798C30.3178 36.137 30.9753 34.1974 31.1538 33.1667C31.5296 31.0303 31.539 30.9085 31.3793 29.7747C31.135 27.985 30.9096 27.7507 28.9932 27.2916C28.7772 27.2354 28.6269 27.1229 28.5423 26.9542C28.4766 26.8137 28.3826 26.7013 28.3357 26.7013C28.2981 26.7013 27.9975 26.9168 27.6781 27.1791C27.3681 27.4415 27.0863 27.6383 27.0675 27.6195C27.0393 27.5914 27.2272 27.3946 27.4902 27.1791C27.7438 26.9636 27.9599 26.7481 27.9599 26.7013C27.9599 26.6075 27.2084 26.2046 26.8796 26.1109C26.7575 26.0828 26.5602 26.1578 26.316 26.3452Z" fill="#007994"/>
<path d="M44.8502 26.3354C44.5496 26.4853 44.3053 26.6446 44.3053 26.6915C44.3053 26.7383 44.5308 26.9726 44.8032 27.2068C45.0662 27.4411 45.2541 27.6379 45.1977 27.6379C45.1508 27.6379 44.8596 27.4224 44.559 27.1694C44.2584 26.907 43.9671 26.7009 43.9296 26.7009C43.8826 26.7009 43.7887 26.8133 43.7229 26.9539C43.629 27.1413 43.4974 27.235 43.225 27.3006C41.8535 27.6098 41.3932 27.8628 41.1396 28.4531C41.0738 28.6311 40.9517 29.2121 40.8765 29.7555C40.745 30.6457 40.745 30.8706 40.8859 31.9388C40.9611 32.5853 41.1302 33.4943 41.2523 33.9628C41.6375 35.4245 43.2438 39.4443 43.4505 39.4443C43.6759 39.4443 43.6196 39.1539 43.0841 37.4579C42.7647 36.4646 42.4265 35.3121 42.3232 34.8998C42.1541 34.2064 41.9568 31.9482 42.0696 31.9482C42.0978 31.9482 42.3232 32.0325 42.5674 32.1449C42.8117 32.248 43.0465 32.3042 43.0841 32.2574C43.1311 32.2199 43.1217 31.9857 43.0747 31.742C43.0184 31.5078 42.9902 31.1423 43.009 30.9456L43.0371 30.5895L43.8826 30.5333C44.8032 30.4771 45.2165 30.3646 45.9962 29.9804C46.635 29.6618 46.8041 29.4744 46.8886 29.0153C46.9638 28.6124 47.1141 28.5843 47.7999 28.8185C48.185 28.9497 48.2695 28.9497 48.5044 28.8185C48.9083 28.6124 49.0492 28.4156 48.9177 28.2563C48.852 28.1814 48.4011 27.8815 47.8938 27.5817C47.3959 27.2912 46.6726 26.8414 46.2968 26.5884C45.9305 26.3354 45.5641 26.1105 45.4983 26.0918C45.442 26.0731 45.1414 26.1761 44.8502 26.3354Z" fill="#007994"/>
<path d="M18.566 27.3476C18.4345 27.4413 17.2321 28.0878 15.8887 28.7812C12.2157 30.6833 9.21907 32.5574 7.26514 34.1784C5.50848 35.6308 3.66727 38.1514 2.98152 40.0629C1.66637 43.6798 1.48789 48.0182 2.45546 52.8345C2.64334 53.7247 2.81243 54.493 2.84061 54.5399C2.94394 54.7085 3.25394 54.6242 3.29152 54.4087C3.3197 54.2963 3.40424 53.8652 3.48879 53.4529C4.05242 50.5857 6.03454 46.8376 8.52392 43.9422C10.4027 41.7402 11.9997 40.2972 15.9921 37.13C17.6924 35.7901 19.3927 34.3658 19.759 33.9817C20.5293 33.1852 21.1024 32.1451 21.1775 31.3861C21.2151 30.9738 21.1869 30.8989 20.8393 30.4585C20.379 29.8869 19.7778 28.7999 19.5524 28.1534C19.2236 27.1976 19.2048 27.1695 18.9981 27.1695C18.8948 27.1695 18.6975 27.2538 18.566 27.3476Z" fill="#007994"/>
<path d="M52.8726 27.4226C52.8256 27.5725 52.7035 27.8911 52.6189 28.1534C52.3935 28.8 51.7923 29.8869 51.332 30.4585C50.9844 30.9083 50.9562 30.9739 50.9938 31.4049C51.022 31.6766 51.1911 32.1639 51.4259 32.6418C51.9426 33.6725 52.7129 34.4034 56.1416 37.102C59.5704 39.8006 60.4065 40.5221 62.0316 42.19C65.6952 45.9662 67.9122 49.7518 68.7295 53.6123C68.8234 54.062 68.9267 54.4743 68.9643 54.5212C69.0395 54.643 69.2649 54.6524 69.3307 54.5399C69.3589 54.4931 69.5279 53.7247 69.7158 52.8345C70.6834 47.9995 70.5049 43.6892 69.1898 40.063C68.3349 37.711 66.1555 35.003 63.7037 33.2414C61.2143 31.4611 59.3074 30.3273 55.9068 28.5751C54.7701 27.9941 53.7274 27.4413 53.5865 27.3476C53.2295 27.0946 52.9853 27.1227 52.8726 27.4226Z" fill="#007994"/>
<path d="M17.5045 38.1234C11.5957 42.9865 10.2994 44.3546 8.93726 47.175C7.78181 49.5644 7.30272 51.9632 7.42484 54.8117C7.57515 58.5785 8.52393 62.0268 10.506 66.0091C11.1824 67.3584 12.7888 70.132 12.9485 70.2351C13.2021 70.3943 13.2585 70.0195 13.3242 67.5739C13.3806 65.0252 13.4651 64.2756 13.916 62.0174C14.94 56.92 17.2603 52.01 20.4072 48.29C20.7078 47.934 21.4405 47.0907 22.0418 46.4254C23.7608 44.4951 24.2305 43.8767 24.2211 43.5675C24.2118 43.277 22.9624 40.6533 22.7463 40.4753C22.3705 40.1661 21.5345 40.6533 19.6839 42.265C15.1091 46.2192 12.2533 51.4946 11.1354 58.0444L10.957 59.0751L11.0133 57.351C11.0697 55.1771 11.3045 53.781 11.8963 52.0006C13.4088 47.4186 16.0297 43.7923 20.5293 40.0443C21.0178 39.632 21.4593 39.2384 21.5063 39.1447C21.5815 39.0323 21.5251 38.8168 21.2715 38.2546C21.0836 37.8516 20.8393 37.2519 20.7266 36.9146C20.5199 36.343 20.3039 35.9776 20.1724 35.9776C20.1442 35.987 18.9418 36.9521 17.5045 38.1234Z" fill="#007994"/>
<path d="M51.8016 36.1369C51.7265 36.2306 51.5668 36.5773 51.4447 36.9146C51.3319 37.2519 51.0877 37.8516 50.8998 38.2545C50.6462 38.8167 50.5898 39.0323 50.665 39.1447C50.7119 39.2384 51.1535 39.6319 51.6419 40.0349C55.8222 43.5112 58.4525 47.0063 59.9743 51.1104C60.8104 53.3687 61.0922 54.8117 61.158 57.351L61.2143 59.0751L61.0734 58.2787C60.6225 55.6737 60.2186 54.137 59.4671 52.263C57.8513 48.1869 55.6062 44.9542 52.4874 42.265C50.6368 40.6533 49.8007 40.166 49.425 40.4753C49.1901 40.672 47.9689 43.2582 47.9689 43.5768C47.9689 43.9516 48.1192 44.1296 51.1628 47.5966C55.1928 52.1786 57.6165 57.5197 58.631 64.0882C58.7249 64.6785 58.8095 66.0747 58.8565 67.5739C58.9222 70.1601 58.9786 70.488 59.2792 70.1788C59.5516 69.8977 60.9795 67.3678 61.7216 65.8685C63.7037 61.8581 64.6055 58.541 64.7558 54.7648C64.9155 50.5576 63.6004 46.7346 60.9513 43.6986C60.1434 42.771 57.964 40.8313 55.0895 38.4794C53.8871 37.4955 52.7128 36.5304 52.4874 36.3336C52.0177 35.9213 51.9895 35.9213 51.8016 36.1369Z" fill="#007994"/>
<path d="M29.8387 41.4214C29.8387 41.9837 30.3272 42.9488 30.7781 43.2767C30.9847 43.4267 31.6423 43.764 32.2529 44.0264C34.0096 44.8041 35.2214 45.4038 35.4468 45.5912C35.6347 45.7598 35.6535 45.8629 35.6817 47.0529C35.7005 48.5428 35.7662 48.4022 34.5356 49.4049C33.5868 50.1732 32.6475 50.6042 31.8302 50.6605C31.2947 50.6979 31.0693 50.6605 30.3647 50.4168C29.9044 50.2575 29.4911 50.1264 29.4441 50.1264C29.2844 50.1264 29.0872 50.7823 29.0872 51.3164C29.0872 51.991 29.3878 52.6751 29.8763 53.1061C30.0641 53.2654 30.252 53.4059 30.2896 53.4059C30.3366 53.4059 30.515 53.256 30.6935 53.0686C31.135 52.6095 32.3938 51.6631 32.9293 51.4007C33.9156 50.8947 34.6765 50.7354 36.0856 50.7354C37.4947 50.7354 38.2556 50.8947 39.242 51.4007C39.7774 51.6631 41.0362 52.6095 41.4777 53.0686C41.6562 53.256 41.8347 53.4059 41.8817 53.4059C41.9192 53.4059 42.1071 53.2654 42.295 53.1061C42.7835 52.6751 43.0841 51.991 43.0841 51.3164C43.0841 50.7823 42.8868 50.1264 42.7271 50.1264C42.6801 50.1264 42.2668 50.2575 41.8065 50.4168C41.102 50.6605 40.8765 50.6979 40.3411 50.6605C39.5238 50.6042 38.5844 50.1732 37.6356 49.4049C36.4144 48.4116 36.4802 48.5522 36.499 47.0623C36.5177 45.8536 36.5271 45.7598 36.7244 45.5912C36.9499 45.4038 38.1711 44.8041 39.9183 44.0264C41.3932 43.3798 41.6844 43.1549 42.0414 42.4147C42.3514 41.7775 42.4359 41.0373 42.2105 41.0373C42.1447 41.0373 41.8629 41.2153 41.5811 41.4214C40.8953 41.9368 40.7732 41.9743 39.7868 41.9743C39.0917 41.9743 38.8474 42.0118 38.4435 42.1992C37.5886 42.5927 36.9874 42.7239 36.0856 42.7239C35.1838 42.7239 34.5826 42.5927 33.7278 42.1992C33.3238 42.0118 33.0796 41.9743 32.3844 41.9743C31.3981 41.9743 31.2759 41.9368 30.5902 41.4214C29.942 40.9342 29.8387 40.9342 29.8387 41.4214Z" fill="#007994"/>
<path d="M26.269 42.4713C26.269 42.9866 27.4057 44.1298 28.4014 44.6171C28.9181 44.8701 29.1529 44.9263 29.8293 44.9544C30.7593 44.9919 31.276 44.8701 31.0505 44.6452C30.9754 44.5702 30.4963 44.4016 29.989 44.2704C28.9369 44.008 28.176 43.5957 27.2272 42.7711C26.5884 42.2089 26.269 42.1152 26.269 42.4713Z" fill="#007994"/>
<path d="M25.4236 42.9209C25.4236 43.2957 26.1751 44.6637 26.7011 45.2447C27.0769 45.657 27.4057 45.9099 27.9036 46.1536C28.5142 46.4534 28.6739 46.4909 29.3314 46.4909C29.7448 46.5003 30.4681 46.444 30.9472 46.3785C31.5202 46.2941 32.2435 46.2754 33.042 46.3129C34.1693 46.3691 34.2538 46.3597 34.2538 46.2004C34.2538 45.9943 34.0472 45.8069 33.5493 45.5539C32.9293 45.2447 32.1872 45.151 31.3605 45.2634C30.966 45.3196 30.2332 45.3758 29.7448 45.3758C28.9557 45.3852 28.7866 45.3571 28.2887 45.1322C27.6593 44.8417 27.1802 44.4107 26.3442 43.3987C25.7711 42.7053 25.4236 42.5273 25.4236 42.9209Z" fill="#007994"/>
<path d="M24.6251 45.5163C24.503 45.6007 23.0281 47.306 22.1827 48.3461C19.543 51.5976 17.5327 56.3577 16.8375 61.0615C16.6778 62.111 16.4994 64.8752 16.4994 66.262C16.4994 68.895 17.1851 72.2964 18.1527 74.489C18.7257 75.7915 19.6463 77.1127 19.9845 77.1127C20.2099 77.1127 20.2099 77.0845 19.9375 75.8758C19.0545 71.9778 19.5524 66.9928 21.2996 62.3452C22.549 59.0282 24.1084 56.1234 26.7105 52.291C27.3587 51.3446 27.8472 50.5388 27.8002 50.5013C27.7626 50.4638 27.3869 50.1827 26.9642 49.8735C25.5833 48.8334 25.3108 48.3742 25.0572 46.7438C24.8881 45.6194 24.8036 45.3852 24.6251 45.5163Z" fill="#007994"/>
<path d="M47.3113 45.6288C47.2644 45.7225 47.2174 45.9099 47.2174 46.0317C47.2174 46.5189 46.9262 47.9057 46.7477 48.2524C46.4659 48.7959 46.0525 49.2363 45.2071 49.8735C44.7844 50.1827 44.4086 50.4638 44.371 50.5013C44.3335 50.5388 44.8219 51.3446 45.4607 52.291C48.1004 56.1796 49.6316 59.0375 50.8716 62.3452C52.6189 66.9928 53.1168 71.9778 52.2337 75.8758C51.9613 77.0845 51.9613 77.1127 52.1868 77.1127C52.5625 77.1127 53.5865 75.5759 54.1595 74.1517C54.911 72.287 55.3713 70.2537 55.5874 67.8549C55.7283 66.3276 55.5967 62.7107 55.3431 61.0615C54.6855 56.7512 53.004 52.4971 50.7213 49.3113C50.0825 48.4117 47.6965 45.5726 47.5274 45.4976C47.4616 45.4695 47.3677 45.5257 47.3113 45.6288Z" fill="#007994"/>
<path d="M39.5896 47.4655C39.4017 47.6529 39.5426 47.8591 40.0123 48.0839C41.2899 48.7117 42.032 48.7586 43.0747 48.2994C43.7417 47.9996 44.0141 47.7372 43.8544 47.5779C43.7699 47.4936 43.6102 47.4936 43.1968 47.5779C42.5674 47.7091 41.3556 47.7185 40.7356 47.5967C40.5008 47.5592 40.1626 47.4936 39.9841 47.4561C39.8056 47.4186 39.6271 47.428 39.5896 47.4655Z" fill="#007994"/>
<path d="M26.8139 55.0646C24.4278 59.047 22.9718 62.4952 22.4645 65.3531C22.2578 66.5057 22.1733 69.7665 22.3142 71.0221C22.4457 72.1559 22.8027 73.8238 23.1408 74.9107C23.7233 76.7567 25.7805 80.0737 26.2972 79.9988C26.4757 79.9706 26.4851 79.9238 26.4475 79.3147C26.363 77.8436 26.4193 70.0757 26.532 68.7733C26.9454 64.0788 27.4151 61.4739 28.5987 57.3978L29.2187 55.252L28.8899 54.643C28.5048 53.9121 28.082 53.3124 27.9599 53.3124C27.9129 53.3124 27.3963 54.0995 26.8139 55.0646Z" fill="#007994"/>
<path d="M43.9014 53.6123C43.7793 53.7809 43.5162 54.2119 43.319 54.568L42.962 55.2146L43.1029 55.7393C43.1874 56.0298 43.4693 57.0136 43.7323 57.9319C45.2917 63.2917 45.8741 68.3703 45.7896 75.9133C45.7614 77.9935 45.7238 79.7551 45.705 79.8301C45.6862 79.9144 45.7426 79.98 45.8647 79.9987C46.3814 80.0737 48.4386 76.766 49.0304 74.9107C49.3874 73.7863 49.735 72.1278 49.8571 70.9752C49.998 69.6634 49.9135 66.5057 49.7068 65.3531C49.378 63.4697 48.4762 60.9304 47.3489 58.6534C46.5223 56.9949 44.3617 53.3124 44.2114 53.3124C44.1644 53.3124 44.0235 53.453 43.9014 53.6123Z" fill="#007994"/>
<path d="M30.9848 56.339C30.7969 56.5639 30.1393 58.6722 29.8951 59.8341C29.5663 61.3989 29.2939 63.4979 29.1623 65.5312C29.0684 67.0398 29.0684 67.4333 29.2093 68.6889C29.416 70.5349 29.8011 72.0341 30.3741 73.1773C30.7499 73.9269 30.966 74.2174 31.7175 74.967C33.1172 76.3819 33.8123 76.6068 33.399 75.5105C33.136 74.8264 32.4502 72.1372 32.1026 70.4037C31.4357 67.0398 31.229 64.5005 31.2572 59.5624C31.2666 56.4608 31.229 56.0392 30.9848 56.339Z" fill="#007994"/>
<path d="M40.9705 56.3109C40.9329 56.3765 40.9047 57.8382 40.9141 59.5717C40.9423 64.5005 40.7356 67.0398 40.0687 70.4037C39.7211 72.1372 39.0353 74.8264 38.7723 75.5105C38.359 76.6068 39.0541 76.3819 40.4538 74.967C41.2053 74.2174 41.4214 73.9269 41.7971 73.1773C42.3702 72.0341 42.7553 70.5349 42.962 68.6889C43.1029 67.4333 43.1029 67.0398 43.0089 65.5312C42.7929 62.2891 42.342 59.6186 41.6562 57.5571C41.2805 56.4234 41.102 56.0954 40.9705 56.3109Z" fill="#007994"/>
<path d="M33.9062 57.1167C33.8781 57.2011 33.8781 58.1193 33.9062 59.1594C34.0284 62.9637 34.4605 67.5458 34.8269 68.867C35.165 70.1413 35.9353 72.0528 36.095 72.0528C36.2923 72.0528 37.2599 69.3917 37.4947 68.2298C37.8329 66.4682 38.2087 61.7362 38.2368 58.8877L38.2462 57.0137L36.1044 56.9855C34.1975 56.9668 33.9626 56.9762 33.9062 57.1167Z" fill="#007994"/>
</svg>
