<svg width="18" height="15" viewBox="0 0 18 15" fill="none" xmlns="http://www.w3.org/2000/svg">
<path d="M2.93111 11.2271C3.03586 11.122 3.17989 11.0608 3.33265 11.0608H17.1855C17.4387 11.0608 17.5652 11.3671 17.3863 11.5465L14.6498 14.2902C14.545 14.3953 14.401 14.4565 14.2482 14.4565H0.39535C0.14221 14.4565 0.0156398 14.1502 0.194584 13.9708L2.93111 11.2271Z" fill="#00B98C"/>
<path d="M2.93043 0.982815C3.03954 0.877792 3.18357 0.816528 3.33196 0.816528H17.1848C17.438 0.816528 17.5645 1.12285 17.3856 1.30226L14.6491 4.04599C14.5443 4.15102 14.4003 4.21228 14.2475 4.21228H0.394661C0.141521 4.21228 0.0149514 3.90596 0.193895 3.72655L2.93043 0.982815Z" fill="#00B98C"/>
<path d="M14.6498 6.07195C14.545 5.96693 14.401 5.90567 14.2482 5.90567H0.39535C0.14221 5.90567 0.0156398 6.21198 0.194584 6.3914L2.93111 9.13513C3.03586 9.24015 3.17989 9.30142 3.33265 9.30142H17.1855C17.4387 9.30142 17.5652 8.9951 17.3863 8.81569L14.6498 6.07195Z" fill="#00B98C"/>
</svg>
